# xmcd
#
# Track frame offsets:
#	150
#	17424
#	33900
#	47491
#	63524
#	79444
#	96914
#	112832
#	125959
#	143373
#	155375
#	173329
#	191876
#	209108
#	226768
#	244073
#	261344
#	275605
#	292951
#	313567
#
# Disc length: 4336
#
# Revision: 2
# Processed by: cddbd v1.5.1PL0 Copyright (c) Steve Scherf et al.
# Submitted via: EasyCDDAExtractor 6.2.0.3
# Normalized: r1:DSETVAR1
#
DISCID=1710ee14
DTITLE=Various Artist - 69 Saloon Tunes
DYEAR=2003
DGENRE=Country
TTITLE0=Pritchett, Aaron - New Frontier
TTITLE1=Dean, Billy - I'm In Love With You
TTITLE2=Blue Country - Good Little Girls
TTITLE3=Johnson, Carolyn Dawn - Simple
TTITLE4=Judd, Cledus T. - Continuing Saga Of Martie Emily And Natalie
TTITLE5=Black, Clint - Spend My Time
TTITLE6=Bentley, Dierks - My Last Name
TTITLE7=Emerson Drive - Waitin' On Me
TTITLE8=Otto, James - Days Of Our Lives
TTITLE9=King, Jill - Hand Me Down Heartache
TTITLE10=Rankin, Jimmy - Morning Bound Train
TTITLE11=Chesney, Kenny - There Goes My Life
TTITLE12=Rimes, LeAnn - This Love
TTITLE13=Loveless, Patty - On Your Way Home
TTITLE14=Howard, Rebecca Lynn - I Need A Vacation
TTITLE15=Tippe, Rick - Back To The Country
TTITLE16=Sawyer Brown - I'll Be Around
TTITLE17=Twain, Shania - She's Not Just A Pretty Face
TTITLE18=McGraw, Tim - Watch The Wind Blow By
TTITLE19=Warner, Wayne - Doing Something Right
EXTD=
EXTT0=
EXTT1=
EXTT2=
EXTT3=
EXTT4=
EXTT5=
EXTT6=
EXTT7=
EXTT8=
EXTT9=
EXTT10=
EXTT11=
EXTT12=
EXTT13=
EXTT14=
EXTT15=
EXTT16=
EXTT17=
EXTT18=
EXTT19=
PLAYORDER=
